<mxfile host="app.diagrams.net" modified="2025-10-16T16:04:33.243345Z" agent="python" version="24.7.7" type="device"><diagram id="ER1" name="ER_Tienda"><mxGraphModel dx="1422" dy="794" grid="1" gridSize="10" guides="1" tooltips="1" connect="1" arrows="1" fold="1" page="1" pageScale="1" pageWidth="1654" pageHeight="1169" math="0" shadow="0"><root><mxCell id="0" /><mxCell id="1" parent="0" /><mxCell id="3" value="&lt;&lt;Entidad&gt;&gt;\nTRABAJADOR\n—\nDNI (PK)\nNombreCompleto\nTelefono" style="shape=rectangle;rounded=1;whiteSpace=wrap;html=1;spacing=8;" vertex="1" parent="1"><mxGeometry x="60" y="60" width="220" height="120" as="geometry" /></mxCell><mxCell id="4" value="GERENTE\n—\nBonusAnual" style="shape=rectangle;rounded=1;whiteSpace=wrap;html=1;spacing=8;dashed=1;" vertex="1" parent="1"><mxGeometry x="60" y="240" width="180" height="80" as="geometry" /></mxCell><mxCell id="5" value="JEFE\n—\nNumVendedoresCargo" style="shape=rectangle;rounded=1;whiteSpace=wrap;html=1;spacing=8;dashed=1;" vertex="1" parent="1"><mxGeometry x="270" y="240" width="220" height="80" as="geometry" /></mxCell><mxCell id="6" value="VENDEDOR\n—\nSueldoBase\nZona" style="shape=rectangle;rounded=1;whiteSpace=wrap;html=1;spacing=8;dashed=1;" vertex="1" parent="1"><mxGeometry x="540" y="240" width="200" height="80" as="geometry" /></mxCell><mxCell id="7" value="&lt;&lt;Entidad&gt;&gt;\nDEPARTAMENTO\n—\nIdDepto (PK)\nNombre" style="shape=rectangle;rounded=1;whiteSpace=wrap;html=1;spacing=8;" vertex="1" parent="1"><mxGeometry x="360" y="40" width="220" height="110" as="geometry" /></mxCell><mxCell id="8" value="&lt;&lt;Entidad&gt;&gt;\nPRODUCTO\n—\nCodigo (PK)\nNombre\nPrecio" style="shape=rectangle;rounded=1;whiteSpace=wrap;html=1;spacing=8;" vertex="1" parent="1"><mxGeometry x="820" y="40" width="220" height="110" as="geometry" /></mxCell><mxCell id="9" value="DIRIGE" style="shape=rhombus;perimeter=rhombusPerimeter;whiteSpace=wrap;html=1;" vertex="1" parent="1"><mxGeometry x="320" y="120" width="120" height="80" as="geometry" /></mxCell><mxCell id="10" value="SUPERVISA" style="shape=rhombus;perimeter=rhombusPerimeter;whiteSpace=wrap;html=1;" vertex="1" parent="1"><mxGeometry x="170" y="180" width="120" height="70" as="geometry" /></mxCell><mxCell id="11" value="SUPERVISA" style="shape=rhombus;perimeter=rhombusPerimeter;whiteSpace=wrap;html=1;" vertex="1" parent="1"><mxGeometry x="450" y="180" width="120" height="70" as="geometry" /></mxCell><mxCell id="12" value="UBICADO_EN" style="shape=rhombus;perimeter=rhombusPerimeter;whiteSpace=wrap;html=1;" vertex="1" parent="1"><mxGeometry x="640" y="90" width="130" height="70" as="geometry" /></mxCell><mxCell id="13" value="VENDE\n[descuento]" style="shape=rhombus;perimeter=rhombusPerimeter;whiteSpace=wrap;html=1;" vertex="1" parent="1"><mxGeometry x="860" y="210" width="150" height="90" as="geometry" /></mxCell><mxCell id="14" value="es-un" style="edgeStyle=orthogonalEdgeStyle;dashed=1;endArrow=block;html=1;" edge="1" parent="1" source="4" target="3"><mxGeometry relative="1" as="geometry" /></mxCell><mxCell id="15" value="es-un" style="edgeStyle=orthogonalEdgeStyle;dashed=1;endArrow=block;html=1;" edge="1" parent="1" source="5" target="3"><mxGeometry relative="1" as="geometry" /></mxCell><mxCell id="16" value="es-un" style="edgeStyle=orthogonalEdgeStyle;dashed=1;endArrow=block;html=1;" edge="1" parent="1" source="6" target="3"><mxGeometry relative="1" as="geometry" /></mxCell><mxCell id="17" value="0..1" style="edgeStyle=orthogonalEdgeStyle;rounded=0;endArrow=block;html=1;" edge="1" parent="1" source="4" target="9"><mxGeometry relative="1" as="geometry" /></mxCell><mxCell id="18" value="1" style="edgeStyle=orthogonalEdgeStyle;rounded=0;endArrow=block;html=1;" edge="1" parent="1" source="9" target="7"><mxGeometry relative="1" as="geometry" /></mxCell><mxCell id="19" value="1" style="edgeStyle=orthogonalEdgeStyle;rounded=0;endArrow=block;html=1;" edge="1" parent="1" source="4" target="10"><mxGeometry relative="1" as="geometry" /></mxCell><mxCell id="20" value="N (cada Jefe -&gt; 1 Gerente)" style="edgeStyle=orthogonalEdgeStyle;rounded=0;endArrow=block;html=1;" edge="1" parent="1" source="10" target="5"><mxGeometry relative="1" as="geometry" /></mxCell><mxCell id="21" value="1" style="edgeStyle=orthogonalEdgeStyle;rounded=0;endArrow=block;html=1;" edge="1" parent="1" source="5" target="11"><mxGeometry relative="1" as="geometry" /></mxCell><mxCell id="22" value="N (cada Vendedor -&gt; 1 Jefe)" style="edgeStyle=orthogonalEdgeStyle;rounded=0;endArrow=block;html=1;" edge="1" parent="1" source="11" target="6"><mxGeometry relative="1" as="geometry" /></mxCell><mxCell id="23" value="1" style="edgeStyle=orthogonalEdgeStyle;rounded=0;endArrow=block;html=1;" edge="1" parent="1" source="7" target="12"><mxGeometry relative="1" as="geometry" /></mxCell><mxCell id="24" value="N (Producto -&gt; 1 Depto)" style="edgeStyle=orthogonalEdgeStyle;rounded=0;endArrow=block;html=1;" edge="1" parent="1" source="12" target="8"><mxGeometry relative="1" as="geometry" /></mxCell><mxCell id="25" value="N" style="edgeStyle=orthogonalEdgeStyle;rounded=0;endArrow=block;html=1;" edge="1" parent="1" source="6" target="13"><mxGeometry relative="1" as="geometry" /></mxCell><mxCell id="26" value="N" style="edgeStyle=orthogonalEdgeStyle;rounded=0;endArrow=block;html=1;" edge="1" parent="1" source="13" target="8"><mxGeometry relative="1" as="geometry" /></mxCell><mxCell id="27" value="Notas:\n• Subclases comparten la PK de TRABAJADOR (DNI)\n• DIRIGE: cada Depto tiene 1 Gerente; un Gerente 0..1 Depto\n• VENDE tiene atributo: descuento" style="shape=note;whiteSpace=wrap;html=1;rounded=1;" vertex="1" parent="1"><mxGeometry x="60" y="350" width="420" height="120" as="geometry" /></mxCell></root></mxGraphModel></diagram></mxfile>